<svg xmlns="http://www.w3.org/2000/svg" viewBox="0 0 50.023 50.108" width="256px" height="256px" version="1.0">
<path d="M 26.36 3.054 l 3.23 3.811 l -2.987 2.358 c -0.03 0.024 -0.06 0.05 -0.087 0.077 c -0.469 0.469 -0.606 1.131 -0.359 1.729 c 0.246 0.594 0.821 0.978 1.466 0.978 h 2.46 c 0.478 3.998 3.794 7 7.94 7 c 4.486 0 8 -3.514 8 -8 v -8.2 c 0 -0.512 -0.386 -0.94 -0.895 -0.995 L 28.147 0.015 c -0.752 -0.096 -1.471 0.25 -1.871 0.897 c -0.395 0.639 -0.39 1.443 0.015 2.049 C 26.312 2.994 26.334 3.025 26.36 3.054 Z M 38.023 17.008 c -3.023 0 -5.457 -2.127 -5.921 -5 h 11.842 C 43.48 14.88 41.046 17.008 38.023 17.008 Z M 44.023 10.008 H 28.837 l 2.533 -2 h 12.652 V 10.008 Z M 44.023 3.707 v 2.3 H 31.486 l -3.379 -3.985 L 44.023 3.707 Z M 48.823 23.869 c -0.048 -0.098 -0.113 -0.19 -0.193 -0.27 c -0.158 -0.209 -0.33 -0.41 -0.515 -0.601 c -1.245 -1.284 -2.946 -1.991 -4.792 -1.991 h -11.5 c -1.784 0 -4.305 0.937 -5.766 2.154 l -8.696 7.77 l -1.353 -1.353 c 0.116 -0.087 0.221 -0.188 0.313 -0.301 c 0.354 -0.433 0.494 -1.003 0.381 -1.566 l -2.994 -14.969 c -0.179 -1.07 -1.055 -1.735 -2.287 -1.735 H 7.126 l 7.241 -2.978 l 3.375 16.973 c 0.107 0.542 0.635 0.9 1.176 0.786 c 0.542 -0.107 0.894 -0.634 0.786 -1.175 l -3.4 -17.1 C 16.201 7 15.899 6.564 15.453 6.285 c -0.425 -0.266 -0.93 -0.359 -1.427 -0.258 c -0.063 0.013 -0.125 0.031 -0.184 0.056 L 1.794 11.038 c -0.651 0.097 -1.052 0.407 -1.284 0.674 c -0.417 0.481 -0.587 1.169 -0.467 1.995 l 2.994 14.665 c 0.049 0.291 0.198 0.813 0.654 1.188 c 0.028 0.043 0.06 0.084 0.096 0.122 l 10.03 10.933 c 0.873 0.871 2.109 1.392 3.307 1.392 c 1.142 0 2.168 -0.384 3.056 -1.146 l 3.744 -3.257 v 11.403 c 0 0.553 0.448 1 1 1 h 2.964 c 0.138 0.067 0.287 0.1 0.435 0.1 c 0.15 0 0.3 -0.033 0.437 -0.1 h 20.165 c 0.553 0 1 -0.447 1 -1 V 27.739 C 49.966 26.33 49.58 24.99 48.823 23.869 Z M 5.001 28.002 L 2.013 13.366 c -0.018 -0.128 -0.014 -0.221 -0.01 -0.274 c 0.067 -0.012 0.135 -0.032 0.201 -0.059 l 9.22 -0.025 c 0.203 0 0.303 0.043 0.32 0.096 l 2.979 14.898 c -0.026 0.004 -0.059 0.006 -0.099 0.006 h -0.6 h -8.9 C 5.072 28.008 5.032 28.006 5.001 28.002 Z M 25.337 34.498 c -0.133 -0.061 -0.274 -0.09 -0.415 -0.09 c -0.237 0 -0.471 0.084 -0.656 0.246 l -5.395 4.694 c -0.518 0.443 -1.089 0.659 -1.749 0.659 c -0.659 0 -1.402 -0.316 -1.863 -0.775 l -8.462 -9.225 h 6.812 l 3.007 3.007 c 0.376 0.375 0.979 0.393 1.374 0.039 l 9.374 -8.378 c 1.067 -0.889 3.151 -1.668 4.46 -1.668 h 8.794 L 25.923 41.292 v -5.884 C 25.923 35.016 25.694 34.66 25.337 34.498 Z M 27.917 48.008 h -1.994 v -3.523 l 17.259 -21.477 h 0.141 c 1.273 0 2.443 0.472 3.303 1.329 L 27.917 48.008 Z M 47.923 48.008 H 30.466 l 17.259 -21.837 c 0.146 0.483 0.215 1 0.198 1.537 V 48.008 Z" />
</svg>