<svg width="24" height="24" viewBox="0 0 24 24" fill="none" xmlns="http://www.w3.org/2000/svg">
<path d="M15 8.22302V7.10819L9 5.10819V12.8728C8.36093 14.109 8 15.5124 8 17C8 17.7732 8.09751 18.5237 8.2809 19.2397L4.31623 20.5613C3.6687 20.7771 3 20.2951 3 19.6126V5.72076C3 5.29033 3.27543 4.90819 3.68377 4.77208L9 3L15 5L19.6838 3.43874C20.3313 3.2229 21 3.70487 21 4.38743V8.93552C19.795 8.33671 18.4368 8 17 8C16.3126 8 15.6432 8.07706 15 8.22302Z" fill="white"/>
<path fill-rule="evenodd" clip-rule="evenodd" d="M10 17C10 20.866 13.134 24 17 24C20.866 24 24 20.866 24 17C24 13.134 20.866 10 17 10C13.134 10 10 13.134 10 17ZM17 19C15.8954 19 15 18.1046 15 17C15 15.8954 15.8954 15 17 15C18.1046 15 19 15.8954 19 17H17L20 20L23 17H21C21 14.7909 19.2091 13 17 13C14.7909 13 13 14.7909 13 17C13 19.2091 14.7909 21 17 21V19Z" fill="white"/>
</svg>
