<svg width="24" height="24" viewBox="0 0 24 24" fill="none" xmlns="http://www.w3.org/2000/svg">
<g opacity="0.2">
<path d="M13.7439 14H24V18H13.2422C13.7209 17.285 14 16.4251 14 15.5C14 14.974 13.9098 14.4692 13.7439 14Z" fill="url(#paint0_linear_519_8186)"/>
<path d="M2 18V14H0V18H2Z" fill="url(#paint1_linear_519_8186)"/>
</g>
<path fill-rule="evenodd" clip-rule="evenodd" d="M4 11C2.89543 11 2 11.8954 2 13V18C2 19.1046 2.89543 20 4 20H9.5C11.9853 20 14 17.9853 14 15.5C14 13.0147 11.9853 11 9.5 11H4ZM4 14C4 14.5523 4.44772 15 5 15C5.55228 15 6 14.5523 6 14C6 13.4477 5.55228 13 5 13C4.44772 13 4 13.4477 4 14Z" fill="white"/>
<path opacity="0.5" d="M9 15C8.44772 15 8 14.5523 8 14C8 13.4477 8.44772 13 9 13L10.5 13C11.3284 13 12 13.6716 12 14.5C12 14.7761 11.7761 15 11.5 15H9Z" fill="white"/>
<path opacity="0.7" fill-rule="evenodd" clip-rule="evenodd" d="M16 15C16 11.6863 13.3137 9 10 9V7C14.4183 7 18 10.5817 18 15H16Z" fill="white"/>
<path opacity="0.5" fill-rule="evenodd" clip-rule="evenodd" d="M20 15C20 9.47715 15.5228 5 10 5V3C16.6274 3 22 8.37258 22 15H20Z" fill="white"/>
<defs>
<linearGradient id="paint0_linear_519_8186" x1="1" y1="16" x2="24" y2="16" gradientUnits="userSpaceOnUse">
<stop stop-color="white"/>
<stop offset="0.648256" stop-color="white" stop-opacity="0.79"/>
<stop offset="1" stop-color="white" stop-opacity="0"/>
</linearGradient>
<linearGradient id="paint1_linear_519_8186" x1="1" y1="16" x2="24" y2="16" gradientUnits="userSpaceOnUse">
<stop stop-color="white"/>
<stop offset="0.648256" stop-color="white" stop-opacity="0.79"/>
<stop offset="1" stop-color="white" stop-opacity="0"/>
</linearGradient>
</defs>
</svg>
